<?xml version="1.0" standalone="no"?><!DOCTYPE svg PUBLIC "-//W3C//DTD SVG 1.1//EN" "http://www.w3.org/Graphics/SVG/1.1/DTD/svg11.dtd"><svg class="icon" width="128px" height="128.00px" viewBox="0 0 1024 1024" version="1.1" xmlns="http://www.w3.org/2000/svg"><path d="M853.034667 808.661333h-242.986667c-23.68 0-42.965333 19.626667-42.965333 43.690667 0 24.106667 19.285333 43.648 42.965333 43.648h242.986667c23.68 0 42.965333-19.541333 42.965333-43.648s-19.285333-43.690667-42.965333-43.690667z" fill="#17abe3" /><path d="M439.850667 294.570667l230.229333 186.026666a13.226667 13.226667 0 0 1 2.133333 18.304L399.36 854.528a89.6 89.6 0 0 1-69.546667 34.858667l-148.992 1.834666a16.981333 16.981333 0 0 1-16.725333-13.312l-33.834667-147.2c-5.888-27.050667 0-55.04 17.152-76.586666l274.304-357.376a12.8 12.8 0 0 1 18.176-2.176z" fill="#13227a" /><path d="M773.12 369.706667l-44.373333 55.424a12.714667 12.714667 0 0 1-18.048 2.048c-53.930667-43.648-192.128-155.733333-230.442667-186.752a13.141333 13.141333 0 0 1-1.834667-18.432l42.794667-53.162667c38.826667-50.005333 106.538667-54.613333 161.194667-11.008l62.72 50.005333c25.770667 20.181333 42.922667 46.762667 48.768 74.752 6.826667 30.762667-0.426667 61.013333-20.736 87.125334z" fill="#f4ea2a" /></svg>