<?xml version="1.0" standalone="no"?><!DOCTYPE svg PUBLIC "-//W3C//DTD SVG 1.1//EN" "http://www.w3.org/Graphics/SVG/1.1/DTD/svg11.dtd"><svg t="1673689830933" class="icon" viewBox="0 0 1194 1024" version="1.1" xmlns="http://www.w3.org/2000/svg" p-id="1373" xmlns:xlink="http://www.w3.org/1999/xlink" width="149.25" height="128"><path d="M111.99999969 32h320.00000062a160.00000031 160.00000031 0 0 1 159.99999938 160.00000031v720a79.99999969 79.99999969 0 0 1-79.99999969 79.99999969H111.99999969a79.99999969 79.99999969 0 0 1-79.99999969-79.99999969V111.99999969a79.99999969 79.99999969 0 0 1 79.99999969-79.99999969z" fill="#CF5A1A" p-id="1374"></path><path d="M32 152h1039.99999969a79.99999969 79.99999969 0 0 1 80.00000062 79.99999969v680.00000062a79.99999969 79.99999969 0 0 1-80.00000062 79.99999969H111.99999969a79.99999969 79.99999969 0 0 1-79.99999969-79.99999969V152z" fill="#FF7A45" p-id="1375"></path><path d="M332 632A60 60 0 1 1 272 692 60 60 0 0 1 332 632z m540 19.99999969a40.00000031 40.00000031 0 0 1 0 80.00000062h-319.99999969a40.00000031 40.00000031 0 0 1 0-80.00000062zM332 392A60 60 0 1 1 272 452 60 60 0 0 1 332 392z m540 19.99999969a40.00000031 40.00000031 0 0 1 0 80.00000062h-319.99999969a40.00000031 40.00000031 0 0 1 0-80.00000062z" fill="#FFBB96" p-id="1376"></path></svg>