<?xml version="1.0" standalone="no"?><!DOCTYPE svg PUBLIC "-//W3C//DTD SVG 1.1//EN" "http://www.w3.org/Graphics/SVG/1.1/DTD/svg11.dtd"><svg class="icon" width="128px" height="128.00px" viewBox="0 0 1024 1024" version="1.1" xmlns="http://www.w3.org/2000/svg"><path d="M372.78125 553.34375c-16.875 0-30.375 13.5-30.375 30.375s13.5 30.375 30.375 30.375h147.234375V680.75c0 11.8125 13.921875 17.71875 22.359375 9.703125l135.421875-97.03125c5.484375-5.0625 5.484375-13.921875 0-18.984375l-135.421875-97.03125c-8.4375-8.015625-22.359375-2.109375-22.359375 9.703125v66.234375H372.78125z" fill="#19a83e" /><path d="M834.21527099 324.38098144h-216.91131591L493.46057128 200.16680908c-9.26971435-9.26971435-21.50573731-14.4607544-34.11254881-14.46075439H208.69494628C171.61608886 186.07684326 141.21142578 216.48150635 141.21142578 253.56036377v516.87927246c0 37.07885742 30.40466309 67.48352051 67.48352051 67.48352051h606.61010743c37.07885742 0 67.48352051-30.40466309 67.4835205-67.85430908V372.95428467c0-26.69677734-21.87652588-48.57330323-48.57330323-48.57330322z m-24.10125732 73.04534913v367.45147705H214.2567749V259.12219238H448.96594238l124.58496095 124.21417236c9.26971435 9.26971435 21.50573731 14.4607544 34.11254881 14.4607544h202.45056153z" fill="#17abe3" /></svg>