<?xml version="1.0" standalone="no"?><!DOCTYPE svg PUBLIC "-//W3C//DTD SVG 1.1//EN" "http://www.w3.org/Graphics/SVG/1.1/DTD/svg11.dtd"><svg t="1673061347458" class="icon" viewBox="0 0 1024 1024" version="1.1" xmlns="http://www.w3.org/2000/svg" p-id="1000" xmlns:xlink="http://www.w3.org/1999/xlink" width="128" height="128"><path d="M128 320m37.162667 0l693.674666 0q37.162667 0 37.162667 37.162667l0 309.674666q0 37.162667-37.162667 37.162667l-693.674666 0q-37.162667 0-37.162667-37.162667l0-309.674666q0-37.162667 37.162667-37.162667Z" fill="#FDDC1C" p-id="1001"></path><path d="M800 128a32 32 0 0 1 31.900444 34.488889c0.071111 0.881778 0.099556 1.777778 0.099556 2.673778v74.837333a32 32 0 1 1-64 0L767.985778 192H544v639.985778l64 0.014222a32 32 0 1 1 0 64H512l-0.369778-0.014222L416 896a32 32 0 1 1 0-64l64-0.014222V192H256v48a32 32 0 1 1-64 0V165.162667c0-0.896 0.028444-1.792 0.099556-2.673778A32 32 0 0 1 224 128h576z" fill="#8a8a8a" p-id="1002"></path></svg>